<?xml version="1.0" standalone="no"?>
<!DOCTYPE svg PUBLIC "-//W3C//DTD SVG 20010904//EN"
 "http://www.w3.org/TR/2001/REC-SVG-20010904/DTD/svg10.dtd">
<svg version="1.0" xmlns="http://www.w3.org/2000/svg"
 width="512.000000pt" height="512.000000pt" viewBox="0 0 512.000000 512.000000"
 preserveAspectRatio="xMidYMid meet">
<metadata>
Created by potrace 1.11, written by Peter Selinger 2001-2013
</metadata>
<g transform="translate(0.000000,512.000000) scale(0.100000,-0.100000)"
fill="#000000" stroke="none">
<path d="M2428 4905 c-2 -2 -39 -6 -83 -9 -44 -3 -91 -8 -105 -11 -14 -3 -45
-7 -69 -10 -24 -3 -46 -7 -50 -9 -3 -2 -22 -7 -41 -10 -77 -13 -183 -42 -290
-80 -41 -15 -79 -28 -85 -30 -54 -15 -317 -149 -386 -196 -32 -22 -63 -40 -69
-40 -5 0 -10 -4 -10 -10 0 -5 -5 -10 -11 -10 -6 0 -25 -11 -43 -26 -17 -14
-63 -51 -101 -82 -102 -82 -313 -282 -298 -282 2 0 -18 -26 -45 -57 -40 -47
-151 -205 -209 -298 -17 -27 -137 -269 -135 -272 1 -2 -8 -24 -19 -50 -33 -77
-94 -269 -105 -333 -8 -43 -16 -65 -28 -72 -8 -5 -7 -8 2 -8 8 0 11 -7 8 -17
-8 -27 -18 -75 -21 -103 -1 -14 -3 -25 -4 -25 -14 0 -19 -458 -6 -560 4 -33 8
-69 10 -80 1 -11 5 -31 8 -45 3 -14 11 -54 18 -90 20 -98 23 -109 62 -235 17
-55 32 -102 32 -105 1 -3 7 -18 13 -33 7 -16 12 -30 12 -32 0 -3 13 -32 29
-65 16 -33 27 -60 24 -60 -4 0 2 -9 12 -20 10 -11 14 -20 9 -20 -5 0 -4 -4 1
-8 18 -13 45 -73 38 -84 -3 -7 -1 -8 5 -4 7 4 12 1 12 -7 0 -8 6 -20 14 -27 8
-6 12 -19 9 -28 -3 -9 -3 -14 2 -10 6 6 55 -54 55 -68 0 -3 18 -29 40 -59 41
-56 49 -72 28 -59 -7 4 -8 3 -4 -5 4 -6 11 -9 16 -6 12 7 51 -45 43 -59 -3 -6
-3 -8 2 -4 4 4 19 -7 34 -25 14 -17 35 -43 46 -56 37 -44 218 -222 241 -238
13 -8 21 -19 18 -24 -3 -5 -1 -8 4 -7 6 2 33 -15 62 -36 38 -29 48 -41 38 -48
-10 -7 -8 -8 4 -4 11 3 41 -10 75 -33 32 -21 79 -50 106 -65 26 -15 47 -32 47
-37 0 -5 3 -8 8 -7 14 4 52 -14 52 -24 0 -6 3 -8 6 -5 10 9 46 -12 39 -23 -4
-6 2 -9 12 -8 22 3 143 -51 143 -64 0 -5 4 -7 9 -4 12 8 71 -14 71 -26 0 -5 4
-6 10 -3 5 3 10 2 10 -3 0 -6 9 -8 20 -5 11 3 20 1 20 -4 0 -5 6 -10 13 -10 6
0 39 -9 72 -19 33 -10 64 -17 69 -16 5 2 6 -5 2 -14 -5 -14 -4 -15 9 -4 18 15
49 5 39 -12 -6 -10 -5 -10 7 -1 12 10 21 9 42 -2 16 -8 25 -9 21 -3 -4 7 -3 8
4 4 14 -8 45 -15 85 -18 15 -1 27 -5 27 -9 0 -4 9 -5 20 -2 16 4 19 2 14 -13
-5 -17 -4 -17 8 -3 9 11 21 13 40 8 15 -4 29 -4 32 -1 3 3 6 0 6 -8 0 -9 3
-10 13 -2 10 9 19 7 37 -5 13 -9 21 -12 18 -7 -4 5 79 9 205 9 117 1 229 4
251 8 25 5 44 3 53 -5 11 -9 13 -9 11 1 -2 8 4 15 12 16 8 2 35 6 60 10 52 8
75 13 75 15 0 3 39 10 67 13 16 1 28 5 28 10 0 4 8 7 19 7 24 0 212 60 228 72
7 6 20 8 28 4 11 -4 14 -2 9 6 -5 7 0 9 14 6 13 -4 23 0 27 10 3 8 8 12 11 9
3 -3 31 8 61 24 30 16 52 24 48 17 -4 -7 1 -4 9 6 9 11 16 16 16 12 0 -4 14 2
30 14 17 12 30 18 30 13 0 -4 4 -3 8 3 9 14 74 49 85 46 4 -1 7 3 7 8 0 6 7
10 15 10 8 0 15 3 15 8 0 11 61 43 71 36 5 -3 9 2 9 10 0 9 4 16 9 16 4 0 29
16 55 36 25 19 51 32 56 29 6 -4 9 -2 8 4 -4 14 92 92 103 85 5 -3 8 -2 7 3
-5 14 81 95 92 88 6 -3 7 0 4 9 -6 16 4 20 36 17 13 -2 13 0 1 8 -12 7 -8 16
19 45 18 19 38 32 43 29 6 -3 7 -2 4 3 -9 15 59 88 74 79 8 -5 10 -4 5 4 -7
11 9 43 36 72 7 8 31 40 52 71 21 32 42 55 46 53 4 -2 7 2 7 9 0 16 72 137 93
154 8 8 9 10 2 7 -11 -6 -11 -3 -1 13 7 12 17 18 23 15 5 -4 6 -1 1 6 -7 12
20 79 37 91 3 3 10 18 13 33 4 16 14 31 21 34 8 3 12 8 9 12 -7 12 18 83 31
88 6 2 10 13 7 24 -3 10 0 19 6 19 6 0 10 3 9 8 -5 14 25 102 32 97 5 -3 6 3
3 13 -2 10 7 58 22 106 14 49 28 112 31 140 4 28 8 54 11 58 4 8 10 53 19 145
9 96 11 376 3 406 -5 16 -4 27 2 27 6 0 7 5 4 11 -4 5 -9 25 -11 42 -3 18 -7
43 -10 55 -3 18 -1 22 8 16 10 -6 11 -5 1 7 -12 14 -21 53 -27 114 -2 17 -7
38 -11 47 -4 9 -4 21 -1 27 3 5 3 11 -1 13 -6 2 -29 75 -48 153 -1 6 -5 17 -8
25 -3 8 -13 35 -21 60 -26 77 -46 130 -55 148 -82 161 -120 246 -114 254 3 6
2 8 -4 5 -6 -4 -34 33 -63 81 -29 48 -56 89 -60 92 -3 3 -22 28 -40 55 -19 28
-46 63 -60 79 -14 16 -23 34 -22 40 2 6 1 8 -3 5 -3 -4 -27 16 -53 44 -245
266 -554 480 -882 611 -170 67 -392 125 -550 142 -19 2 -60 6 -90 10 -60 7
-347 14 -352 9z"/>
<path d="M170 2406 c0 -2 7 -7 16 -10 8 -3 12 -2 9 4 -6 10 -25 14 -25 6z"/>
<path d="M616 1207 c3 -10 9 -15 12 -12 3 3 0 11 -7 18 -10 9 -11 8 -5 -6z"/>
<path d="M675 1101 c-3 -5 -2 -12 3 -15 5 -3 9 1 9 9 0 17 -3 19 -12 6z"/>
<path d="M1095 700 c3 -5 8 -10 11 -10 2 0 4 5 4 10 0 6 -5 10 -11 10 -5 0 -7
-4 -4 -10z"/>
<path d="M4153 695 c0 -8 4 -12 9 -9 5 3 6 10 3 15 -9 13 -12 11 -12 -6z"/>
<path d="M3930 620 c0 -5 5 -10 11 -10 5 0 7 5 4 10 -3 6 -8 10 -11 10 -2 0
-4 -4 -4 -10z"/>
<path d="M3869 563 c-13 -16 -12 -17 4 -4 16 13 21 21 13 21 -2 0 -10 -8 -17
-17z"/>
<path d="M3826 558 c3 -5 10 -6 15 -3 13 9 11 12 -6 12 -8 0 -12 -4 -9 -9z"/>
<path d="M3773 525 c0 -8 4 -12 9 -9 5 3 6 10 3 15 -9 13 -12 11 -12 -6z"/>
<path d="M1335 501 c-3 -5 -2 -12 3 -15 5 -3 9 1 9 9 0 17 -3 19 -12 6z"/>
<path d="M3687 479 c7 -7 15 -10 18 -7 3 3 -2 9 -12 12 -14 6 -15 5 -6 -5z"/>
<path d="M1510 419 c0 -5 5 -7 10 -4 6 3 10 8 10 11 0 2 -4 4 -10 4 -5 0 -10
-5 -10 -11z"/>
<path d="M1573 385 c0 -8 4 -12 9 -9 5 3 6 10 3 15 -9 13 -12 11 -12 -6z"/>
<path d="M1655 360 c-3 -5 -1 -10 4 -10 6 0 11 5 11 10 0 6 -2 10 -4 10 -3 0
-8 -4 -11 -10z"/>
<path d="M3406 338 c3 -5 10 -6 15 -3 13 9 11 12 -6 12 -8 0 -12 -4 -9 -9z"/>
<path d="M1760 320 c-9 -6 -10 -10 -3 -10 6 0 15 5 18 10 8 12 4 12 -15 0z"/>
<path d="M3319 313 c-13 -16 -12 -17 4 -4 9 7 17 15 17 17 0 8 -8 3 -21 -13z"/>
<path d="M3250 299 c0 -5 5 -7 10 -4 6 3 10 8 10 11 0 2 -4 4 -10 4 -5 0 -10
-5 -10 -11z"/>
<path d="M3190 276 c7 -7 13 -7 20 0 6 6 3 10 -10 10 -13 0 -16 -4 -10 -10z"/>
<path d="M1835 271 c-3 -5 -2 -12 3 -15 5 -3 9 1 9 9 0 17 -3 19 -12 6z"/>
<path d="M1745 260 c-3 -6 1 -7 9 -4 18 7 21 14 7 14 -6 0 -13 -4 -16 -10z"/>
<path d="M1894 262 c4 -3 14 -7 22 -8 9 -1 13 0 10 4 -4 3 -14 7 -22 8 -9 1
-13 0 -10 -4z"/>
<path d="M2055 220 c3 -5 8 -10 11 -10 2 0 4 5 4 10 0 6 -5 10 -11 10 -5 0 -7
-4 -4 -10z"/>
<path d="M2095 220 c-3 -5 -1 -10 4 -10 6 0 11 5 11 10 0 6 -2 10 -4 10 -3 0
-8 -4 -11 -10z"/>
<path d="M2147 219 c7 -7 15 -10 18 -7 3 3 -2 9 -12 12 -14 6 -15 5 -6 -5z"/>
<path d="M2970 219 c0 -5 5 -7 10 -4 6 3 10 8 10 11 0 2 -4 4 -10 4 -5 0 -10
-5 -10 -11z"/>
<path d="M3095 221 c-3 -5 -2 -12 3 -15 5 -3 9 1 9 9 0 17 -3 19 -12 6z"/>
<path d="M2256 182 c-3 -5 1 -9 9 -9 8 0 12 4 9 9 -3 4 -7 8 -9 8 -2 0 -6 -4
-9 -8z"/>
<path d="M2495 180 c3 -5 8 -10 11 -10 2 0 4 5 4 10 0 6 -5 10 -11 10 -5 0 -7
-4 -4 -10z"/>
<path d="M2535 180 c3 -5 8 -10 11 -10 2 0 4 5 4 10 0 6 -5 10 -11 10 -5 0 -7
-4 -4 -10z"/>
<path d="M2754 182 c4 -3 14 -7 22 -8 9 -1 13 0 10 4 -4 3 -14 7 -22 8 -9 1
-13 0 -10 -4z"/>
<path d="M2855 181 c-3 -5 -2 -12 3 -15 5 -3 9 1 9 9 0 17 -3 19 -12 6z"/>
</g>
</svg>
